<svg xmlns="http://www.w3.org/2000/svg" viewBox="0 0 952.66 968.02"><defs><style>.cls-1{fill:#1a1818;opacity:0.22;}.cls-2{fill:#ffbc1b;}.cls-3{fill:#e56d13;}.cls-4{fill:#f4f3ed;}</style></defs><g id="Layer_2" data-name="Layer 2"><g id="Layer_1-2" data-name="Layer 1"><circle class="cls-1" cx="484.15" cy="499.51" r="468.51"/><circle class="cls-2" cx="468.51" cy="468.51" r="468.51"/><path class="cls-3" d="M635.63,699c-32.22-40.78-60.15-92.78-80.42-150.32-20.79-59.06-31.61-118.62-31.5-171.61a189.73,189.73,0,0,0-39,9.25,327.81,327.81,0,0,0-76.1,38.56c-.29,49.12,9.86,104.94,29.48,160.68,20.28,57.57,48.49,108.89,80.78,147.44a327.86,327.86,0,0,0,81.75-17.48A189.84,189.84,0,0,0,635.63,699Z"/><path class="cls-3" d="M713.9,490.62c-23.58-67-85.5-109.95-154.29-114.61-.29,49.13,9.86,105,29.49,160.74,19.13,54.32,45.33,103.07,75.35,140.78C715.86,630.83,737.64,558,713.9,490.62Z"/><path class="cls-3" d="M373.5,452.34C278.4,537.12,249.88,654,249.88,654S346.07,727.8,474,733.8c-27.76-38.39-51.83-85.16-69.84-136.31C386.79,548.08,376.37,498.32,373.5,452.34Z"/><path class="cls-4" d="M328,176.56c111.55,53.81,132.55,175.16,132.55,175.16S352.54,410.79,241,357c-56.89-27.44-83.51-90.08-59.47-139.9S271.16,149.11,328,176.56Z"/><path class="cls-4" d="M630.66,278.38C577.73,348.34,490.51,346,490.51,346s-26-83.29,27-153.26c27-35.68,74.22-45.44,105.47-21.8S657.66,242.69,630.66,278.38Z"/></g></g></svg>